<?xml version="1.0" encoding="UTF-8" standalone="no"?>
<!-- Created with Inkscape (http://www.inkscape.org/) -->

<svg
   xmlns:dc="http://purl.org/dc/elements/1.1/"
   xmlns:cc="http://creativecommons.org/ns#"
   xmlns:rdf="http://www.w3.org/1999/02/22-rdf-syntax-ns#"
   xmlns:svg="http://www.w3.org/2000/svg"
   xmlns="http://www.w3.org/2000/svg"
   xmlns:sodipodi="http://sodipodi.sourceforge.net/DTD/sodipodi-0.dtd"
   xmlns:inkscape="http://www.inkscape.org/namespaces/inkscape"
   width="333"
   height="500"
   viewBox="0 0 88.106252 132.29167"
   version="1.1"
   id="svg8"
   inkscape:version="0.92.4 (unknown)"
   sodipodi:docname="a_comedy.svg">
  <defs
     id="defs2" />
  <sodipodi:namedview
     id="base"
     pagecolor="#ffffff"
     bordercolor="#666666"
     borderopacity="1.0"
     inkscape:pageopacity="0.0"
     inkscape:pageshadow="2"
     inkscape:zoom="0.98994949"
     inkscape:cx="-106.61931"
     inkscape:cy="220.40347"
     inkscape:document-units="px"
     inkscape:current-layer="layer1"
     showgrid="false"
     units="px"
     inkscape:window-width="1920"
     inkscape:window-height="1011"
     inkscape:window-x="0"
     inkscape:window-y="32"
     inkscape:window-maximized="1"
     inkscape:object-nodes="false" />
  <metadata
     id="metadata5">
    <rdf:RDF>
      <cc:Work
         rdf:about="">
        <dc:format>image/svg+xml</dc:format>
        <dc:type
           rdf:resource="http://purl.org/dc/dcmitype/StillImage" />
        <dc:title />
      </cc:Work>
    </rdf:RDF>
  </metadata>
  <g
     inkscape:label="Layer 1"
     inkscape:groupmode="layer"
     id="layer1"
     transform="translate(0,-164.70834)">
    <rect
       style="fill:#404040;fill-opacity:1;stroke:#909090;stroke-width:9.61892796;stroke-miterlimit:4;stroke-dasharray:none;stroke-opacity:1"
       id="rect834"
       width="78.487328"
       height="122.67274"
       x="4.809464"
       y="169.51781"
       ry="9.5154963" />
    <path
       style="fill:#ffff00;fill-opacity:0.97983871;stroke:none;stroke-width:12.31022835;stroke-miterlimit:4;stroke-dasharray:none;stroke-opacity:1"
       id="path2272"
       sodipodi:type="arc"
       sodipodi:cx="43.564934"
       sodipodi:cy="228.84627"
       sodipodi:rx="28.86511"
       sodipodi:ry="30.468725"
       sodipodi:start="0"
       sodipodi:end="6.2796946"
       d="m 72.430044,228.84627 a 28.86511,30.468725 0 0 1 -28.83992,30.46871 28.86511,30.468725 0 0 1 -28.890257,-30.41553 28.86511,30.468725 0 0 1 28.789497,-30.5218 28.86511,30.468725 0 0 1 28.940504,30.36226 l -28.864934,0.10636 z" />
    <path
       style="fill:#000000;fill-opacity:0.97983871;stroke:none;stroke-width:10.58333397;stroke-miterlimit:4;stroke-dasharray:none;stroke-opacity:1"
       id="path2282"
       sodipodi:type="arc"
       sodipodi:cx="31.003265"
       sodipodi:cy="221.49637"
       sodipodi:rx="5.3453908"
       sodipodi:ry="6.0135646"
       sodipodi:start="5.7383808"
       sodipodi:end="4.243419"
       d="m 35.574797,218.37983 a 5.3453908,6.0135646 0 0 1 -0.323446,6.76663 5.3453908,6.0135646 0 0 1 -5.717663,2.13175 5.3453908,6.0135646 0 0 1 -3.851594,-5.21004 5.3453908,6.0135646 0 0 1 2.905227,-5.93611 l 2.415944,5.36431 z" />
    <path
       style="fill:#000000;fill-opacity:0.97983871;stroke:none;stroke-width:10.58333397;stroke-miterlimit:4;stroke-dasharray:none;stroke-opacity:1"
       id="path2284"
       sodipodi:type="arc"
       sodipodi:cx="54.389351"
       sodipodi:cy="222.0309"
       sodipodi:rx="5.746295"
       sodipodi:ry="6.0135646"
       sodipodi:start="5.7383808"
       sodipodi:end="4.243419"
       d="m 59.303747,218.91436 a 5.746295,6.0135646 0 0 1 -0.347705,6.76664 5.746295,6.0135646 0 0 1 -6.146487,2.13174 5.746295,6.0135646 0 0 1 -4.140463,-5.21004 5.746295,6.0135646 0 0 1 3.123119,-5.93611 l 2.59714,5.36431 z" />
    <path
       style="fill:none;stroke:#000000;stroke-width:5.29166679;stroke-linecap:butt;stroke-linejoin:miter;stroke-opacity:1;stroke-miterlimit:4;stroke-dasharray:none"
       d="m 26.192415,239.00252 c 11.01835,15.75778 21.140861,13.15086 30.735995,-0.26727"
       id="path2286"
       inkscape:connector-curvature="0"
       sodipodi:nodetypes="cc" />
  </g>
</svg>
